<?xml version="1.0" standalone="no"?>
<!DOCTYPE svg PUBLIC "-//W3C//DTD SVG 20010904//EN"
 "http://www.w3.org/TR/2001/REC-SVG-20010904/DTD/svg10.dtd">
<svg version="1.0" xmlns="http://www.w3.org/2000/svg"
 width="1060.000000pt" height="1060.000000pt" viewBox="0 0 1060.000000 1060.000000"
 preserveAspectRatio="xMidYMid meet">
<metadata>
Created by potrace 1.11, written by Peter Selinger 2001-2013
</metadata>
<g transform="translate(0.000000,1060.000000) scale(0.100000,-0.100000)"
fill="#000000" stroke="none">
<path d="M5478 9315 c-2 -1 -43 -5 -93 -9 -49 -3 -101 -8 -115 -11 -14 -2 -46
-6 -72 -9 -54 -6 -66 -9 -163 -32 -38 -9 -83 -18 -100 -21 -74 -12 -313 -101
-442 -165 -79 -39 -143 -75 -143 -80 0 -4 -4 -8 -10 -8 -11 0 -53 -28 -134
-90 -32 -25 -68 -52 -80 -60 -11 -8 -63 -58 -116 -110 -375 -374 -585 -828
-635 -1375 -6 -68 -7 -297 -1 -335 2 -14 7 -47 11 -75 4 -27 18 -93 32 -145
13 -52 26 -102 28 -110 19 -85 136 -330 221 -466 157 -251 306 -434 559 -688
109 -109 158 -156 281 -266 48 -43 201 -171 269 -225 28 -22 52 -42 55 -45 3
-3 28 -23 55 -45 28 -22 55 -44 61 -50 6 -5 37 -32 70 -60 106 -90 177 -156
299 -276 168 -165 185 -184 357 -387 10 -13 24 -34 30 -48 6 -13 14 -24 18
-24 12 0 127 -192 170 -282 75 -161 86 -214 83 -413 -2 -128 -10 -187 -48
-340 -19 -79 -99 -242 -174 -355 -46 -70 -210 -248 -262 -285 -38 -27 -99 -65
-105 -65 -4 0 -15 -6 -23 -13 -47 -40 -266 -109 -386 -123 -33 -3 -69 -8 -80
-10 -25 -5 -247 -5 -300 0 -148 14 -243 36 -370 83 -82 31 -178 77 -220 107
-16 11 -30 19 -30 17 0 -5 -55 29 -65 39 -3 3 -32 25 -64 50 -66 50 -201 180
-260 250 -182 218 -313 522 -351 810 -3 25 -7 61 -10 80 -3 19 -7 62 -10 95
-3 33 -8 80 -11 105 -2 25 -6 77 -9 115 -8 132 -17 186 -33 202 -29 29 -75 41
-182 48 -58 4 -123 8 -145 10 -46 3 -102 -9 -128 -29 -17 -13 -47 -134 -61
-246 -3 -25 -8 -56 -11 -70 -2 -14 -9 -54 -15 -90 -5 -36 -12 -76 -14 -90 -3
-14 -7 -43 -11 -65 -3 -22 -12 -78 -20 -125 -8 -47 -17 -105 -20 -130 -4 -24
-8 -47 -10 -50 -1 -3 -6 -32 -9 -65 -4 -33 -9 -67 -11 -75 -4 -15 -42 -245
-51 -310 -2 -19 -8 -57 -14 -85 -5 -27 -11 -66 -14 -85 -5 -35 -33 -211 -41
-260 -13 -76 -65 -401 -70 -435 -3 -22 -10 -62 -15 -90 -28 -147 -30 -202 -10
-239 23 -44 64 -52 253 -49 94 1 178 3 184 4 23 4 51 44 106 151 80 157 110
194 176 214 108 32 171 20 496 -98 330 -121 539 -182 740 -217 33 -6 69 -13
80 -15 50 -9 166 -26 230 -33 142 -15 667 -7 735 12 8 2 38 6 65 10 307 36
678 161 955 322 38 22 202 133 210 142 3 3 28 24 55 46 92 73 209 188 319 315
61 70 206 269 232 316 8 16 26 47 40 69 63 103 178 370 185 430 1 6 7 26 14
45 14 35 49 186 59 250 30 192 28 569 -4 715 -5 22 -12 56 -15 75 -12 72 -58
238 -91 330 -36 97 -133 302 -146 308 -5 2 -8 8 -8 14 0 16 -222 345 -249 368
-3 3 -24 28 -46 55 -21 28 -42 52 -45 55 -3 3 -34 39 -69 80 -72 85 -322 334
-395 395 -26 22 -55 47 -64 56 -10 8 -39 33 -67 55 -27 21 -52 42 -55 45 -3 3
-43 36 -90 75 -47 38 -94 77 -105 86 -11 9 -65 53 -120 98 -55 45 -109 89
-120 98 -11 9 -70 57 -130 107 -323 264 -393 324 -475 411 -220 233 -304 450
-295 769 2 66 6 127 9 135 3 8 7 32 11 53 7 51 40 147 81 235 141 306 389 484
724 519 111 12 328 5 420 -12 352 -66 617 -263 808 -600 89 -157 187 -425 206
-565 3 -25 8 -54 10 -65 4 -25 18 -144 30 -265 22 -218 30 -230 171 -246 39
-4 72 -8 75 -9 21 -5 147 -18 155 -16 6 2 19 5 30 7 25 5 65 49 66 75 1 10 2
22 3 27 9 33 17 73 21 102 4 19 15 73 25 120 10 47 21 96 23 110 11 56 38 191
57 285 12 55 24 111 26 125 3 14 28 138 55 275 28 138 53 259 55 270 2 11 6
31 9 45 3 14 8 36 11 50 3 14 7 37 9 52 2 15 8 44 14 65 5 21 12 52 14 68 4
22 69 347 110 545 0 3 -3 19 -7 36 -9 39 -34 63 -72 70 -52 10 -348 7 -376 -4
-15 -6 -46 -37 -69 -69 -59 -80 -125 -141 -179 -166 -38 -17 -64 -20 -170 -20
-148 0 -209 13 -497 107 -207 68 -266 84 -398 111 -111 23 -114 24 -160 30
-22 3 -47 8 -55 10 -8 2 -44 7 -80 10 -36 4 -81 9 -100 11 -36 5 -437 13 -442
9z"/>
</g>
</svg>
